<svg width="90" height="58" viewBox="0 0 90 58" fill="none" xmlns="http://www.w3.org/2000/svg">
<path d="M5.57484 4.14271C5.57484 6.11516 4.50247 7.71414 3.17963 7.71414C1.8568 7.71414 0.784424 6.11516 0.784424 4.14271C0.784424 2.17027 1.8568 0.571289 3.17963 0.571289C4.50247 0.571289 5.57484 2.17027 5.57484 4.14271Z" fill="url(#paint0_linear_268_21)"/>
<path d="M22.3413 4.14271C22.3413 6.11516 21.2689 7.71414 19.9461 7.71414C18.6233 7.71414 17.5509 6.11516 17.5509 4.14271C17.5509 2.17027 18.6233 0.571289 19.9461 0.571289C21.2689 0.571289 22.3413 2.17027 22.3413 4.14271Z" fill="url(#paint1_linear_268_21)"/>
<path d="M39.1078 4.14271C39.1078 6.11516 38.0354 7.71414 36.7126 7.71414C35.3897 7.71414 34.3174 6.11516 34.3174 4.14271C34.3174 2.17027 35.3897 0.571289 36.7126 0.571289C38.0354 0.571289 39.1078 2.17027 39.1078 4.14271Z" fill="url(#paint2_linear_268_21)"/>
<path d="M55.8742 4.14271C55.8742 6.11516 54.8019 7.71414 53.479 7.71414C52.1562 7.71414 51.0838 6.11516 51.0838 4.14271C51.0838 2.17027 52.1562 0.571289 53.479 0.571289C54.8019 0.571289 55.8742 2.17027 55.8742 4.14271Z" fill="url(#paint3_linear_268_21)"/>
<path d="M72.6407 4.14271C72.6407 6.11516 71.5683 7.71414 70.2455 7.71414C68.9227 7.71414 67.8503 6.11516 67.8503 4.14271C67.8503 2.17027 68.9227 0.571289 70.2455 0.571289C71.5683 0.571289 72.6407 2.17027 72.6407 4.14271Z" fill="url(#paint4_linear_268_21)"/>
<path d="M89.4072 4.14271C89.4072 6.11516 88.3348 7.71414 87.012 7.71414C85.6891 7.71414 84.6168 6.11516 84.6168 4.14271C84.6168 2.17027 85.6891 0.571289 87.012 0.571289C88.3348 0.571289 89.4072 2.17027 89.4072 4.14271Z" fill="url(#paint5_linear_268_21)"/>
<path d="M5.57484 29.1427C5.57484 31.1151 4.50247 32.7141 3.17963 32.7141C1.8568 32.7141 0.784424 31.1151 0.784424 29.1427C0.784424 27.1702 1.8568 25.5713 3.17963 25.5713C4.50247 25.5713 5.57484 27.1702 5.57484 29.1427Z" fill="url(#paint6_linear_268_21)"/>
<path d="M22.3413 29.1427C22.3413 31.1151 21.2689 32.7141 19.9461 32.7141C18.6233 32.7141 17.5509 31.1151 17.5509 29.1427C17.5509 27.1702 18.6233 25.5713 19.9461 25.5713C21.2689 25.5713 22.3413 27.1702 22.3413 29.1427Z" fill="url(#paint7_linear_268_21)"/>
<path d="M39.1078 29.1427C39.1078 31.1151 38.0354 32.7141 36.7126 32.7141C35.3897 32.7141 34.3174 31.1151 34.3174 29.1427C34.3174 27.1702 35.3897 25.5713 36.7126 25.5713C38.0354 25.5713 39.1078 27.1702 39.1078 29.1427Z" fill="url(#paint8_linear_268_21)"/>
<path d="M55.8742 29.1427C55.8742 31.1151 54.8019 32.7141 53.479 32.7141C52.1562 32.7141 51.0838 31.1151 51.0838 29.1427C51.0838 27.1702 52.1562 25.5713 53.479 25.5713C54.8019 25.5713 55.8742 27.1702 55.8742 29.1427Z" fill="url(#paint9_linear_268_21)"/>
<path d="M72.6407 29.1427C72.6407 31.1151 71.5683 32.7141 70.2455 32.7141C68.9227 32.7141 67.8503 31.1151 67.8503 29.1427C67.8503 27.1702 68.9227 25.5713 70.2455 25.5713C71.5683 25.5713 72.6407 27.1702 72.6407 29.1427Z" fill="url(#paint10_linear_268_21)"/>
<path d="M89.4072 29.1427C89.4072 31.1151 88.3348 32.7141 87.012 32.7141C85.6891 32.7141 84.6168 31.1151 84.6168 29.1427C84.6168 27.1702 85.6891 25.5713 87.012 25.5713C88.3348 25.5713 89.4072 27.1702 89.4072 29.1427Z" fill="url(#paint11_linear_268_21)"/>
<path d="M5.57484 54.1427C5.57484 56.1151 4.50247 57.7141 3.17963 57.7141C1.8568 57.7141 0.784424 56.1151 0.784424 54.1427C0.784424 52.1702 1.8568 50.5712 3.17963 50.5712C4.50247 50.5712 5.57484 52.1702 5.57484 54.1427Z" fill="url(#paint12_linear_268_21)"/>
<path d="M22.3413 54.1427C22.3413 56.1151 21.2689 57.7141 19.9461 57.7141C18.6233 57.7141 17.5509 56.1151 17.5509 54.1427C17.5509 52.1702 18.6233 50.5712 19.9461 50.5712C21.2689 50.5712 22.3413 52.1702 22.3413 54.1427Z" fill="url(#paint13_linear_268_21)"/>
<path d="M39.1078 54.1427C39.1078 56.1151 38.0354 57.7141 36.7126 57.7141C35.3897 57.7141 34.3174 56.1151 34.3174 54.1427C34.3174 52.1702 35.3897 50.5712 36.7126 50.5712C38.0354 50.5712 39.1078 52.1702 39.1078 54.1427Z" fill="url(#paint14_linear_268_21)"/>
<path d="M55.8742 54.1427C55.8742 56.1151 54.8019 57.7141 53.479 57.7141C52.1562 57.7141 51.0838 56.1151 51.0838 54.1427C51.0838 52.1702 52.1562 50.5712 53.479 50.5712C54.8019 50.5712 55.8742 52.1702 55.8742 54.1427Z" fill="url(#paint15_linear_268_21)"/>
<path d="M72.6407 54.1427C72.6407 56.1151 71.5683 57.7141 70.2455 57.7141C68.9227 57.7141 67.8503 56.1151 67.8503 54.1427C67.8503 52.1702 68.9227 50.5712 70.2455 50.5712C71.5683 50.5712 72.6407 52.1702 72.6407 54.1427Z" fill="url(#paint16_linear_268_21)"/>
<path d="M89.4072 54.1427C89.4072 56.1151 88.3348 57.7141 87.012 57.7141C85.6891 57.7141 84.6168 56.1151 84.6168 54.1427C84.6168 52.1702 85.6891 50.5712 87.012 50.5712C88.3348 50.5712 89.4072 52.1702 89.4072 54.1427Z" fill="url(#paint17_linear_268_21)"/>
<defs>
<linearGradient id="paint0_linear_268_21" x1="45.0958" y1="0.571289" x2="45.0958" y2="57.7141" gradientUnits="userSpaceOnUse">
<stop stop-color="white" stop-opacity="0.3"/>
<stop offset="1" stop-color="white" stop-opacity="0"/>
</linearGradient>
<linearGradient id="paint1_linear_268_21" x1="45.0958" y1="0.571289" x2="45.0958" y2="57.7141" gradientUnits="userSpaceOnUse">
<stop stop-color="white" stop-opacity="0.3"/>
<stop offset="1" stop-color="white" stop-opacity="0"/>
</linearGradient>
<linearGradient id="paint2_linear_268_21" x1="45.0958" y1="0.571289" x2="45.0958" y2="57.7141" gradientUnits="userSpaceOnUse">
<stop stop-color="white" stop-opacity="0.3"/>
<stop offset="1" stop-color="white" stop-opacity="0"/>
</linearGradient>
<linearGradient id="paint3_linear_268_21" x1="45.0958" y1="0.571289" x2="45.0958" y2="57.7141" gradientUnits="userSpaceOnUse">
<stop stop-color="white" stop-opacity="0.3"/>
<stop offset="1" stop-color="white" stop-opacity="0"/>
</linearGradient>
<linearGradient id="paint4_linear_268_21" x1="45.0958" y1="0.571289" x2="45.0958" y2="57.7141" gradientUnits="userSpaceOnUse">
<stop stop-color="white" stop-opacity="0.3"/>
<stop offset="1" stop-color="white" stop-opacity="0"/>
</linearGradient>
<linearGradient id="paint5_linear_268_21" x1="45.0958" y1="0.571289" x2="45.0958" y2="57.7141" gradientUnits="userSpaceOnUse">
<stop stop-color="white" stop-opacity="0.3"/>
<stop offset="1" stop-color="white" stop-opacity="0"/>
</linearGradient>
<linearGradient id="paint6_linear_268_21" x1="45.0958" y1="0.571289" x2="45.0958" y2="57.7141" gradientUnits="userSpaceOnUse">
<stop stop-color="white" stop-opacity="0.3"/>
<stop offset="1" stop-color="white" stop-opacity="0"/>
</linearGradient>
<linearGradient id="paint7_linear_268_21" x1="45.0958" y1="0.571289" x2="45.0958" y2="57.7141" gradientUnits="userSpaceOnUse">
<stop stop-color="white" stop-opacity="0.3"/>
<stop offset="1" stop-color="white" stop-opacity="0"/>
</linearGradient>
<linearGradient id="paint8_linear_268_21" x1="45.0958" y1="0.571289" x2="45.0958" y2="57.7141" gradientUnits="userSpaceOnUse">
<stop stop-color="white" stop-opacity="0.3"/>
<stop offset="1" stop-color="white" stop-opacity="0"/>
</linearGradient>
<linearGradient id="paint9_linear_268_21" x1="45.0958" y1="0.571289" x2="45.0958" y2="57.7141" gradientUnits="userSpaceOnUse">
<stop stop-color="white" stop-opacity="0.3"/>
<stop offset="1" stop-color="white" stop-opacity="0"/>
</linearGradient>
<linearGradient id="paint10_linear_268_21" x1="45.0958" y1="0.571289" x2="45.0958" y2="57.7141" gradientUnits="userSpaceOnUse">
<stop stop-color="white" stop-opacity="0.3"/>
<stop offset="1" stop-color="white" stop-opacity="0"/>
</linearGradient>
<linearGradient id="paint11_linear_268_21" x1="45.0958" y1="0.571289" x2="45.0958" y2="57.7141" gradientUnits="userSpaceOnUse">
<stop stop-color="white" stop-opacity="0.3"/>
<stop offset="1" stop-color="white" stop-opacity="0"/>
</linearGradient>
<linearGradient id="paint12_linear_268_21" x1="45.0958" y1="0.571289" x2="45.0958" y2="57.7141" gradientUnits="userSpaceOnUse">
<stop stop-color="white" stop-opacity="0.3"/>
<stop offset="1" stop-color="white" stop-opacity="0"/>
</linearGradient>
<linearGradient id="paint13_linear_268_21" x1="45.0958" y1="0.571289" x2="45.0958" y2="57.7141" gradientUnits="userSpaceOnUse">
<stop stop-color="white" stop-opacity="0.3"/>
<stop offset="1" stop-color="white" stop-opacity="0"/>
</linearGradient>
<linearGradient id="paint14_linear_268_21" x1="45.0958" y1="0.571289" x2="45.0958" y2="57.7141" gradientUnits="userSpaceOnUse">
<stop stop-color="white" stop-opacity="0.3"/>
<stop offset="1" stop-color="white" stop-opacity="0"/>
</linearGradient>
<linearGradient id="paint15_linear_268_21" x1="45.0958" y1="0.571289" x2="45.0958" y2="57.7141" gradientUnits="userSpaceOnUse">
<stop stop-color="white" stop-opacity="0.3"/>
<stop offset="1" stop-color="white" stop-opacity="0"/>
</linearGradient>
<linearGradient id="paint16_linear_268_21" x1="45.0958" y1="0.571289" x2="45.0958" y2="57.7141" gradientUnits="userSpaceOnUse">
<stop stop-color="white" stop-opacity="0.3"/>
<stop offset="1" stop-color="white" stop-opacity="0"/>
</linearGradient>
<linearGradient id="paint17_linear_268_21" x1="45.0958" y1="0.571289" x2="45.0958" y2="57.7141" gradientUnits="userSpaceOnUse">
<stop stop-color="white" stop-opacity="0.3"/>
<stop offset="1" stop-color="white" stop-opacity="0"/>
</linearGradient>
</defs>
</svg>
