<svg width="20" height="20" viewBox="0 0 20 20" fill="none" xmlns="http://www.w3.org/2000/svg">
<path fill-rule="evenodd" clip-rule="evenodd" d="M8.8341 4.42922C8.42616 5.73182 7.31133 6.66667 6 6.66667C4.68867 6.66667 3.57385 5.73183 3.1659 4.42922C3.11194 4.43924 3.05652 4.44444 3 4.44444H1C0.447715 4.44444 0 3.94698 0 3.33333C0 2.71968 0.447715 2.22222 1 2.22222H3C3.05652 2.22222 3.11194 2.22743 3.1659 2.23744C3.57385 0.93484 4.68867 0 6 0C7.31133 0 8.42616 0.934842 8.8341 2.23745C8.88806 2.22744 8.94348 2.22222 9 2.22222H19C19.5523 2.22222 20 2.71968 20 3.33333C20 3.94698 19.5523 4.44444 19 4.44444H9C8.94348 4.44444 8.88806 4.43923 8.8341 4.42922ZM7 3.33333C7 3.94698 6.55228 4.44444 6 4.44444C5.44772 4.44444 5 3.94698 5 3.33333C5 2.71968 5.44772 2.22222 6 2.22222C6.55228 2.22222 7 2.71968 7 3.33333Z" fill="white"/>
<path fill-rule="evenodd" clip-rule="evenodd" d="M0 16.6667C0 16.053 0.447715 15.5556 1 15.5556H3C3.05652 15.5556 3.11194 15.5608 3.1659 15.5708C3.57385 14.2682 4.68867 13.3333 6 13.3333C7.31133 13.3333 8.42615 14.2682 8.8341 15.5708C8.88806 15.5608 8.94348 15.5556 9 15.5556H19C19.5523 15.5556 20 16.053 20 16.6667C20 17.2803 19.5523 17.7778 19 17.7778H9C8.94348 17.7778 8.88806 17.7726 8.8341 17.7626C8.42615 19.0652 7.31133 20 6 20C4.68867 20 3.57385 19.0652 3.1659 17.7626C3.11194 17.7726 3.05652 17.7778 3 17.7778H1C0.447715 17.7778 0 17.2803 0 16.6667ZM7 16.6667C7 17.2803 6.55228 17.7778 6 17.7778C5.44772 17.7778 5 17.2803 5 16.6667C5 16.053 5.44772 15.5556 6 15.5556C6.55228 15.5556 7 16.053 7 16.6667Z" fill="white"/>
<path fill-rule="evenodd" clip-rule="evenodd" d="M19 8.88889C19.5523 8.88889 20 9.38635 20 10C20 10.6137 19.5523 11.1111 19 11.1111H17C16.9435 11.1111 16.8881 11.1059 16.8341 11.0959C16.4262 12.3985 15.3113 13.3333 14 13.3333C12.6887 13.3333 11.5738 12.3985 11.1659 11.0959C11.1119 11.1059 11.0565 11.1111 11 11.1111H1C0.447715 11.1111 0 10.6137 0 10C0 9.38635 0.447715 8.88889 1 8.88889H11C11.0565 8.88889 11.1119 8.8941 11.1659 8.90411C11.5738 7.60151 12.6887 6.66667 14 6.66667C15.3113 6.66667 16.4262 7.60151 16.8341 8.90411C16.8881 8.8941 16.9435 8.88889 17 8.88889H19ZM14 11.1111C14.5523 11.1111 15 10.6136 15 10C15 9.38635 14.5523 8.88889 14 8.88889C13.4477 8.88889 13 9.38635 13 10C13 10.6136 13.4477 11.1111 14 11.1111Z" fill="white"/>
</svg>
