<svg width="39" height="38" viewBox="0 0 39 38" fill="none" xmlns="http://www.w3.org/2000/svg">
<g clip-path="url(#clip0_63_5605)">
<path fill-rule="evenodd" clip-rule="evenodd" d="M25.89 0.536226C25.9177 0.4978 25.9721 0.488462 26.0115 0.515368L28.7097 2.35496C28.7492 2.38186 28.7588 2.43482 28.7312 2.47324L24.9757 7.69541C26.8015 8.26333 28.0453 8.87593 28.0453 8.87593C28.0453 8.87593 25.005 13.968 19.8483 13.968C14.6915 13.968 11.0272 9.22209 11.0272 9.22209C11.0272 9.22209 12.3265 8.41473 14.2525 7.72227L10.1333 2.94244C10.1024 2.9065 10.1072 2.85293 10.1441 2.82278L12.6673 0.761219C12.7043 0.731067 12.7593 0.735754 12.7902 0.771688L18.0058 6.8238C18.4524 6.77462 18.9074 6.74713 19.3665 6.74713C20.0264 6.74713 20.6855 6.79597 21.3289 6.87886L25.89 0.536226ZM26.9103 14.2091C28.2864 13.2522 30.3687 10.7545 30.3687 10.7545C30.3687 10.7545 35.6876 14.8585 35.6876 23.5606C35.6876 32.2626 26.492 37.5 26.492 37.5C26.492 37.5 22.0986 33.1798 21.02 27.7034C19.9415 22.2269 22.6155 16.146 22.6155 16.146C22.6155 16.146 25.5341 15.1661 26.9103 14.2091V14.2091ZM12.0898 14.2091C10.7137 13.2522 8.6314 10.7545 8.6314 10.7545C8.6314 10.7545 3.3125 14.8585 3.3125 23.5606C3.3125 32.2626 12.508 37.5 12.508 37.5C12.508 37.5 16.9015 33.1798 17.9801 27.7034C19.0586 22.2269 16.3846 16.146 16.3846 16.146C16.3846 16.146 13.466 15.1661 12.0898 14.2091V14.2091Z" fill="#8CB330"/>
</g>
<defs>
<clipPath id="clip0_63_5605">
<rect width="38" height="37" fill="white" transform="translate(0.5 0.5)"/>
</clipPath>
</defs>
</svg>
