<svg width="26" height="26" viewBox="0 0 26 26" fill="none" xmlns="http://www.w3.org/2000/svg">
<g clip-path="url(#clip0_63_5629)">
<path fill-rule="evenodd" clip-rule="evenodd" d="M7.92543 0.528595C7.92058 0.514598 7.93101 0.5 7.94581 0.5H16.756C16.7654 0.5 16.7738 0.506153 16.7766 0.515177L20.8232 13.5892C20.8275 13.6031 20.8171 13.6171 20.8026 13.6171H14.9373C14.9302 13.6171 14.925 13.6239 14.927 13.6308L18.2909 25.4724C18.2974 25.4954 18.2673 25.5104 18.253 25.4913L5.18039 8.10682C5.16971 8.09261 5.17985 8.07233 5.19761 8.07233H10.5208C10.5282 8.07233 10.5334 8.06503 10.531 8.05802L7.92543 0.528595Z" fill="#EED535"/>
</g>
<defs>
<clipPath id="clip0_63_5629">
<rect width="25" height="25" fill="white" transform="translate(0.5 0.5)"/>
</clipPath>
</defs>
</svg>
