<svg width="26" height="26" viewBox="0 0 26 26" fill="none" xmlns="http://www.w3.org/2000/svg">
<g clip-path="url(#clip0_63_5609)">
<path fill-rule="evenodd" clip-rule="evenodd" d="M4.81146 2.5784C5.11401 1.38386 6.19619 0.5 7.48477 0.5C8.45132 0.5 9.30176 0.9973 9.79414 1.75H10.6004C11.1014 1.23592 11.8012 0.916667 12.5757 0.916667C13.7111 0.916667 14.6863 1.60294 15.1091 2.58333H15.7841C16.2071 2.31926 16.7069 2.16667 17.2423 2.16667C18.3778 2.16667 19.353 2.85294 19.7757 3.83333H21.6114C21.6271 3.83333 21.6418 3.83756 21.6544 3.84493C21.7383 3.83726 21.8232 3.83333 21.909 3.83333C23.432 3.83333 24.6666 5.06794 24.6666 6.59092V14.8597L24.6666 14.875L24.6666 14.8903V15.0094C24.6666 15.0599 24.6652 15.1101 24.6625 15.1601C24.4965 20.8963 19.3386 25.5 12.9999 25.5C6.55659 25.5 1.33325 20.743 1.33325 14.875C1.33325 12.0425 2.55029 9.4689 4.53411 7.56421C4.52916 10.3256 4.5758 13.1804 4.79081 13.1314C5.36651 13.0001 4.9167 4.44724 4.81146 2.5784Z" fill="#D04164"/>
</g>
<defs>
<clipPath id="clip0_63_5609">
<rect width="25" height="25" fill="white" transform="translate(0.5 0.5)"/>
</clipPath>
</defs>
</svg>
