<svg width="26" height="26" viewBox="0 0 26 26" fill="none" xmlns="http://www.w3.org/2000/svg">
<g clip-path="url(#clip0_63_5625)">
<path fill-rule="evenodd" clip-rule="evenodd" d="M9.22619 23.8334C12.8885 23.8334 16.0238 21.7979 17.3182 18.9126C17.334 18.8774 12.1215 20.2672 12.2877 19.7759C12.3619 19.5565 15.5572 18.3892 17.8852 17.0277C19.2232 16.2452 19.8394 14.5886 19.8394 14.5886C19.8394 14.5886 17.5851 15.683 16.4455 15.9607C14.149 16.5203 12.1275 16.46 12.1275 16.4017C12.1275 16.2756 15.4842 15.6378 20.1496 12.7948C22.3441 11.4575 22.9402 9.15412 22.9402 9.15412C22.9402 9.15412 20.5275 10.5912 19.069 11.0657C15.6102 12.1908 12.4539 12.5299 12.4539 12.3777C12.4539 12.0517 15.2316 11.2879 18.1766 9.86086C19.7078 9.11892 21.034 8.14958 22.5707 7.0716C25.0853 5.30787 25.5 2.16666 25.5 2.16666C25.5 2.16666 23.0199 3.76627 21.8096 4.29749C16.8155 6.48947 12.4057 7.63928 9.22619 7.8882C4.42657 8.26398 0.5 11.6128 0.5 15.9607C0.5 20.3086 4.40684 23.8334 9.22619 23.8334Z" fill="#748FC9"/>
</g>
<defs>
<clipPath id="clip0_63_5625">
<rect width="25" height="25" fill="white" transform="translate(0.5 0.5)"/>
</clipPath>
</defs>
</svg>
