<svg width="26" height="26" viewBox="0 0 26 26" fill="none" xmlns="http://www.w3.org/2000/svg">
<g clip-path="url(#clip0_63_5665)">
<path fill-rule="evenodd" clip-rule="evenodd" d="M19.8027 12.4736C19.8013 12.4716 19.8007 12.4692 19.8011 12.4668L21.3928 3.18589C21.3935 3.18162 21.3972 3.1785 21.4015 3.1785H21.9053C21.9092 3.1785 21.9126 3.18102 21.9137 3.18472L25.4996 14.5383C25.5007 14.5418 25.4995 14.5457 25.4966 14.548L22.8527 16.6123C22.8487 16.6153 22.843 16.6146 22.8401 16.6105L19.8027 12.4736ZM0.5 18.6261C0.5 18.63 0.502475 18.6334 0.506134 18.6346L5.95624 20.4166C5.95887 20.4175 5.96179 20.417 5.96408 20.4155L18.1463 12.0052C18.1484 12.0037 18.1498 12.0015 18.1501 11.9991L19.4565 3.23348C19.4573 3.2281 19.4531 3.22327 19.4477 3.22327H8.65724C8.65456 3.22327 8.65208 3.22445 8.65037 3.22649L0.502048 13.0562C0.500724 13.0578 0.5 13.0598 0.5 13.0619V18.6261ZM8.22732 20.8706L14.1815 22.8211C14.1841 22.8219 14.1871 22.8215 14.1894 22.8198L21.2782 17.735C21.2821 17.7322 21.2831 17.7268 21.2804 17.7228L18.623 13.7684C18.6203 13.7642 18.6147 13.7631 18.6106 13.766L8.22732 20.8706Z" fill="#BAAB82"/>
</g>
<defs>
<clipPath id="clip0_63_5665">
<rect width="25" height="25" fill="white" transform="translate(0.5 0.5)"/>
</clipPath>
</defs>
</svg>
