<svg width="26" height="26" viewBox="0 0 26 26" fill="none" xmlns="http://www.w3.org/2000/svg">
<g clip-path="url(#clip0_63_5669)">
<path fill-rule="evenodd" clip-rule="evenodd" d="M0.502496 13.0152C0.49917 13.0096 0.499168 13.0026 0.502491 12.9968L6.78883 2.25631C6.7921 2.25074 6.79811 2.24731 6.80455 2.24731H19.2644C19.2709 2.24731 19.2769 2.25077 19.2802 2.25639L25.4975 12.9969C25.5008 13.0026 25.5008 13.0095 25.4975 13.0151L19.2802 23.7436C19.2769 23.7492 19.2709 23.7527 19.2644 23.7527H6.80455C6.79811 23.7527 6.7921 23.7493 6.78883 23.7437L0.502496 13.0152ZM18.7919 13C18.7919 16.1977 16.1996 18.7899 13.002 18.7899C9.80431 18.7899 7.21207 16.1977 7.21207 13C7.21207 9.8023 9.80431 7.21011 13.002 7.21011C16.1996 7.21011 18.7919 9.8023 18.7919 13Z" fill="#417D9A"/>
</g>
<defs>
<clipPath id="clip0_63_5669">
<rect width="25" height="25" fill="white" transform="translate(0.5 0.5)"/>
</clipPath>
</defs>
</svg>
