<svg width="26" height="26" viewBox="0 0 26 26" fill="none" xmlns="http://www.w3.org/2000/svg">
<g clip-path="url(#clip0_63_5673)">
<path fill-rule="evenodd" clip-rule="evenodd" d="M21.11 17.4204C21.11 21.8827 17.479 25.5 12.9999 25.5C8.52087 25.5 4.88989 21.8827 4.88989 17.4204C4.88989 13.0806 12.5612 1.16155 12.982 0.511124C12.9916 0.496292 13.0083 0.496292 13.0179 0.511124C13.4386 1.16155 21.11 13.0806 21.11 17.4204ZM11.648 22.9097C7.53259 22.0093 8.23682 17.4505 8.23682 17.4505C8.23682 17.4505 9.3606 20.2024 12.0877 21.0939C14.8148 21.9853 18.1105 20.6779 18.1105 20.6779C18.1105 20.6779 15.7634 23.8102 11.648 22.9097Z" fill="#4A90DA"/>
</g>
<defs>
<clipPath id="clip0_63_5673">
<rect width="25" height="25" fill="white" transform="translate(0.5 0.5)"/>
</clipPath>
</defs>
</svg>
